# File exported by Houdini 19.5.640 (www.sidefx.com)
# 8 points
# 36 vertices
# 12 primitives
# Bounds: [-0.5, -0.5, -0.5] to [0.5, 0.5, 0.5]
g 
v 0.5 -0.5 0.5
v -0.5 -0.5 0.5
v 0.5 0.5 0.5
v -0.5 0.5 0.5
v -0.5 -0.5 -0.5
v 0.5 -0.5 -0.5
v -0.5 0.5 -0.5
v 0.5 0.5 -0.5
vt 0.315616488 0.333333343 0
vt 0 0.648949862 0
vt 0 0.333333343 0
vt 0.648949862 0.666666687 0
vt 0.333333343 0.982283175 0
vt 0.333333343 0.666666687 0
vt 0 0.315616488 0
vt 0.315616488 0 0
vt 0.315616488 0.315616488 0
vt 0.648949862 0 0
vt 0.333333343 0.315616488 0
vt 0.333333343 0 0
vt 0.315616488 0.666666687 0
vt 0 0.982283175 0
vt 0 0.666666687 0
vt 0.648949862 0.333333343 0
vt 0.333333343 0.648949862 0
vt 0.333333343 0.333333343 0
vt 0.648949862 0.648949862 0
vt 0.315616488 0.982283175 0
vt 0.648949862 0.315616488 0
vt 0 0 0
vt 0.648949862 0.982283175 0
vt 0.315616488 0.648949862 0
vn 0 0 1
vn 0 0 1
vn 0 0 1
vn 0 0 -1
vn 0 0 -1
vn 0 0 -1
vn 0 1 0
vn 0 1 0
vn 0 1 0
vn 0 -1 0
vn 0 -1 0
vn 0 -1 0
vn 1 0 0
vn 1 0 0
vn 1 0 0
vn -1 0 0
vn -1 0 0
vn -1 0 0
vn -1 0 0
vn -1 0 0
vn -1 0 0
vn 1 0 0
vn 1 0 0
vn 1 0 0
vn 0 -1 0
vn 0 -1 0
vn 0 -1 0
vn 0 1 0
vn 0 1 0
vn 0 1 0
vn 0 0 -1
vn 0 0 -1
vn 0 0 -1
vn 0 0 1
vn 0 0 1
vn 0 0 1
g 
f 1/1/1 4/2/2 2/3/3
f 5/4/4 8/5/5 6/6/6
f 7/7/7 3/8/8 8/9/9
f 6/10/10 2/11/11 5/12/12
f 6/13/13 3/14/14 1/15/15
f 2/16/16 7/17/17 5/18/18
f 7/17/19 2/16/20 4/19/21
f 3/14/22 6/13/23 8/20/24
f 2/11/25 6/10/26 1/21/27
f 3/8/28 7/7/29 4/22/30
f 8/5/31 5/4/32 7/23/33
f 4/2/34 1/1/35 3/24/36
